<svg width="25" height="21" viewBox="0 0 25 21" fill="none" xmlns="http://www.w3.org/2000/svg">
<path d="M7.657 18.9999C5.085 18.9999 3 16.9929 3 14.5169C3 12.0419 5.085 10.0349 7.657 10.0349C8.05 8.27288 9.451 6.83488 11.332 6.26188C13.212 5.68988 15.288 6.06888 16.776 7.26188C18.264 8.45188 18.938 10.2689 18.546 12.0309H19.536C21.449 12.0309 23 13.5909 23 15.5169C23 17.4439 21.449 19.0039 19.535 19.0039H7.657" stroke="white" stroke-width="1.5"/>
<rect x="13" y="1" width="1" height="3" rx="0.5" fill="white"/>
<rect x="19" y="4" width="1" height="3" rx="0.5" fill="white"/>
<rect x="12" y="3" width="1" height="3" rx="0.5" transform="rotate(-90 12 3)" fill="white"/>
<rect x="18" y="6" width="1" height="3" rx="0.5" transform="rotate(-90 18 6)" fill="white"/>
<path d="M8.2984 0.344925C4.43317 0.907905 1.43323 4.2662 1.24304 8.17825C1.13651 10.3697 1.34952 11.5073 2.67408 13.0656L4.07868 11.6321C3.21528 10.4454 2.83137 9.83031 2.90774 8.25917C3.02104 5.92859 4.28345 3.9876 6.17532 2.8281C5.80191 3.64426 5.59093 4.55175 5.54642 5.46734C5.4537 7.37469 6.1215 9.14052 7.28367 10.4715L8.60645 9.45396C7.67599 8.42841 7.13829 7.0465 7.21112 5.54827C7.27991 4.13327 7.93135 2.7466 8.97872 1.79634C9.24057 1.55877 9.34403 1.14664 9.19375 0.805611C9.04347 0.464578 8.63538 0.277876 8.2984 0.344925Z" fill="white"/>
</svg>
