<svg width="25" height="25" viewBox="0 0 25 25" fill="none" xmlns="http://www.w3.org/2000/svg">
<path d="M17.5 19L19.535 19.0039C21.449 19.0039 23 17.4439 23 15.5169C23 13.5909 21.449 12.0309 19.536 12.0309H18.546C18.938 10.2689 18.264 8.45188 16.776 7.26188C15.288 6.06888 13.212 5.68988 11.332 6.26188C9.451 6.83488 8.05 8.27288 7.657 10.0349C5.085 10.0349 3 12.0419 3 14.5169C3 16.9929 5.085 18.9999 7.657 18.9999" stroke="white" stroke-width="1.5"/>
<path d="M8 19.001L7.65625 19.0004" stroke="white" stroke-width="1.5"/>
<path d="M11.4632 5.49392C11.1601 4.9549 10.7362 4.49349 10.2248 4.14593C9.71328 3.79836 9.1282 3.57412 8.51545 3.49081C7.90271 3.4075 7.27899 3.46739 6.69329 3.66578C6.1076 3.86417 5.57587 4.19565 5.13989 4.63419C4.7039 5.07273 4.37553 5.60638 4.18057 6.19322C3.9856 6.78007 3.92936 7.40412 4.01624 8.01637C4.10313 8.62862 4.33079 9.21239 4.68133 9.72182C5.03187 10.2312 5.49575 10.6525 6.03653 10.9524L6.67312 9.80456C6.30979 9.60305 5.99812 9.32005 5.76261 8.97778C5.52709 8.63551 5.37414 8.2433 5.31576 7.83195C5.25738 7.4206 5.29517 7.00132 5.42616 6.60704C5.55715 6.21276 5.77778 5.85422 6.0707 5.55958C6.36362 5.26494 6.72087 5.04223 7.11438 4.90894C7.50789 4.77565 7.92694 4.73541 8.33862 4.79138C8.75031 4.84736 9.14341 4.99802 9.48704 5.23153C9.83068 5.46505 10.1155 5.77505 10.3191 6.1372L11.4632 5.49392Z" fill="white"/>
<rect x="2.28906" y="3.02612" width="0.991291" height="1.53169" rx="0.495645" transform="rotate(-42.12 2.28906 3.02612)" fill="white"/>
<rect x="6.59375" y="1.07202" width="0.973978" height="1.50676" rx="0.486989" transform="rotate(-4.23912 6.59375 1.07202)" fill="white"/>
<rect x="12" y="2" width="0.991291" height="1.51039" rx="0.495645" transform="rotate(41.4025 12 2)" fill="white"/>
<rect x="1" y="7.67529" width="0.991291" height="1.53169" rx="0.495645" transform="rotate(-89.2415 1 7.67529)" fill="white"/>
<rect x="2.08594" y="11.4473" width="0.991291" height="1.45404" rx="0.495645" transform="rotate(-123.392 2.08594 11.4473)" fill="white"/>
<rect x="13" y="21" width="2" height="3" rx="0.5" fill="white"/>
<rect x="10" y="14" width="2" height="3" rx="0.5" fill="white"/>
<rect x="10" y="19" width="2" height="3" rx="0.5" fill="white"/>
<rect x="13" y="16" width="2" height="3" rx="0.5" fill="white"/>
</svg>
